<?xml version="1.0" encoding="UTF-8"?>
<svg id="Layer_1" xmlns="http://www.w3.org/2000/svg" version="1.1" viewBox="0 0 2800 1000">
  <!-- Generator: Adobe Illustrator 29.7.1, SVG Export Plug-In . SVG Version: 2.1.1 Build 8)  -->
  <defs>
    <style>
      .st0 {
        fill: #fff;
        fill-rule: evenodd;
      }

      .st1 {
        fill: #03c9a3;
      }
    </style>
  </defs>
  <g>
    <path class="st0" d="M899.5,522.8c0-56.5,46.7-105.7,100.3-105.7s99.9,49.3,99.9,105.7-46.7,105.4-99.9,105.4-100.3-49.3-100.3-105.4ZM1062,522.8c0-42.8-27.3-72.6-62.2-72.6s-62.5,29.9-62.5,72.6,27.3,72.6,62.5,72.6,62.2-30.2,62.2-72.6ZM1141.4,546.9v-94.9h-37.7v-26.3h5c32.3,0,39.5-16.5,39.5-42.4v-25.2h5.4c13.3,0,19.4-.4,24.8-2.9v66.5h75.8v30.2h-75.8v100.3c0,31.3,14.7,43.9,32.7,43.9s27-7.9,34.5-19.8l25.2,18c-10.8,21.6-33.4,33.8-59.7,33.8-42.8,0-69.7-32-69.7-81.3ZM1308.9,546.9v-94.9h-37.7v-26.3h5c32.3,0,39.5-16.5,39.5-42.4v-25.2h5.4c13.3,0,19.1-.4,24.4-2.9v66.5h75.8v30.2h-75.8v100.3c0,31.3,15.1,43.9,32.7,43.9s27-7.9,34.9-19.8l24.8,18c-10.4,21.6-33.1,33.8-59.7,33.8-42.4,0-69.4-32-69.4-81.3ZM1461.6,421.7h12.2c13.6,0,19.4-.4,24.8-2.5v204.3h-37v-201.8ZM1532,421.7h11.9c13.7,0,19.4-.7,24.8-2.9v43.5c10.8-28.1,34.9-45.3,69.7-45.3s54.3,17.6,61.8,48.2c10.8-29.9,36.3-48.2,72.6-48.2s65.1,28.1,65.1,73.4v132.7h-36.7v-127c0-32.4-12.6-45.3-39.2-45.3s-58.6,23.4-58.6,65.1v107.2h-37v-127c0-32.4-12.6-45.3-38.8-45.3s-58.9,23.4-58.9,65.1v107.2h-36.7v-201.4ZM1866.6,573.1c0-45,43.1-54.7,83.7-59.3,31.3-4,42.8-5.4,42.8-29.1s-12.6-36-40.6-36-42.8,9.7-51.4,28.1l-25.5-16.2c12.6-28.1,43.1-43.5,81.2-43.5s73.3,24.5,73.3,74.4v132h-35.9v-34.9c-10.4,25.9-33.4,39.6-65,39.6s-62.5-19.8-62.5-55ZM1993.8,539v-17.6c-6.8,11.9-17.2,14.4-39.2,17.3-25.2,3.2-52.1,6.1-52.1,32.4s10.8,29.1,34.5,29.1,56.8-18.3,56.8-61.1Z"/>
    <path class="st0" d="M2076.2,546.9v-94.9h-37.7v-26.3h4.7c32.3,0,39.5-16.5,39.5-42.4v-25.2h5.4c13.7,0,19.4-.4,24.8-2.9v66.5h75.8v30.2h-75.8v100.3c0,31.3,14.7,43.9,32.7,43.9s26.9-7.9,34.5-19.8l25.2,18c-10.8,21.6-33.1,33.8-59.7,33.8-42.8,0-69.4-32-69.4-81.3ZM2212,523.5c0-57.2,43.8-106.5,96-106.5s92,46.4,92,112.6h-151.3c1.1,37,25.5,66.9,66.8,66.9s45.3-13.3,55-36l27.3,15.5c-14.4,31.3-42.8,52.1-82.3,52.1-60.4,0-103.5-47.8-103.5-104.7ZM2249.1,503.7h115c-3.6-30.9-25.2-57.5-57.5-57.5s-53.6,26.6-57.5,57.5Z"/>
  </g>
  <path class="st1" d="M788.3,431.9c-5.1-11.2-13.1-3.8-16.1,4.4-2.3,5.4-5.2,9.8-9.4,14.2-8.1,8.5-23.4,20.7-34.9,36.3-12.3,15.1-21,36.6-33.9,48.6-5.8,5.2-19.1,10.2-17.4-1.1,1.3-9.5,7.1-19.3,13.3-30.9,68.5-110.2-71.7-232-168.8-142.4-19.5,18.6-32,44.4-34.3,70.8-1.8,19.3,1.3,38.8,9.2,56.4,5.6,13.3,26,42.3,19.5,51.9-11.8,5.5-22.9-14.4-30.9-27.3-5.8-9.4-10.4-17.2-17.1-25.7-7.9-11-27-29.6-31.1-32.5-5.8-4.4-11.3-10.6-14.2-17.8-4.2-9.8-3-18.4-5.7-20.2-.7-.6-1.6-.5-2.4,0-8.3,5-12.9,27.6-7.1,39.2,5.5,14.8,17,23.7,28,34.2,8.8,8.1,17,18.4,23.4,28.9,15.6,25.1,29.4,48.1,55.7,47.1,11.2-.2,23.4-4.9,27-16.3,9.8-36.6-27.9-67.5-29.4-103.2-.7-57.3,47.2-102.3,103.8-89.2,43.2,7.7,78.2,55.2,65.5,106-7,29.2-39.3,58.9-24.2,90,10,17,37.3,18,57.8-3.9,6.1-6.5,10.6-13.7,15.3-21,7.2-11,13.5-22.7,22.2-32,12.5-12.2,45.8-36.5,36.9-64l-.2-.6h0Z"/>
  <path class="st1" d="M650.9,456c-3.6,8.4-10.4,1.1-23.4,2.1-2.6.2-23.1,8.4-22.3-12,1.6-38.2,60.9-25.6,45.7,10Z"/>
  <path class="st1" d="M564.2,422.1c26.7,0,31.4,37.2,13.2,38-2.1.1-4.5-1-11.1-2-12.2-1.8-19.8,6.4-23.3-1.7-6.1-14.1-.5-31.2,21.2-34.3h0Z"/>
  <path class="st1" d="M611.3,618.7c.5-6.1,1.8-10.1,4.3-10.6,3.1-.7,6.5,8.7,8,11.5,32.6,61.7,70,.8,109.6,9.3,12.2,2.6,13.8,5.2,22.4,8.9,13.1,5.6,40.3,2.4,20.1,13.8-14,8.8-31.2-3.4-42.9-4-16.3-.8-23.4,5.4-36.8,13-46.5,26.4-87.6-7.7-84.7-41.9ZM640.8,586.4c-1.7-11.5,42.7,37.8,88.9-9.3,41.1-41.9,75.4,6.4,63.2,3.3-12.3-3.1-35.6,1.6-55.2,19.3-28.5,25.6-90.4,31.2-96.9-13.2h0ZM584.1,618.7c-.5-6.1-1.8-10.1-4.3-10.6-3.1-.7-6.5,8.7-8,11.5-32.6,61.7-70,.8-109.6,9.3-12.2,2.6-13.8,5.2-22.4,8.9-13,5.5-40.3,2.4-20.1,13.8,14,8.8,31.2-3.4,42.9-4,16.3-.8,23.4,5.4,36.8,13,46.5,26.4,87.6-7.7,84.7-41.9ZM554.6,586.4c1.7-11.5-42.7,37.8-88.9-9.3-41.1-41.9-75.4,6.4-63.2,3.3,12.3-3.1,35.6,1.6,55.2,19.3,28.5,25.6,90.4,31.2,96.9-13.2h0Z"/>
  <path class="st1" d="M618.6,479c-4.2,1.7-10.9,3.6-21,3.6s-16.6-1.9-20.8-3.6c-2.1-.8-3.5,2.8-2.1,5.1,10.2,16.7,23,16,23,16,0,0,12.9.7,23.1-16,1.4-2.3,0-5.9-2.1-5.1h0Z"/>
</svg>